<svg xmlns="http://www.w3.org/2000/svg" viewBox="0 0 32 32" role="img" aria-label="WhatsApp">
  <defs>
    <linearGradient id="waGrad" x1="0" x2="1" y1="0" y2="1">
      <stop offset="0" stop-color="#42d86b" />
      <stop offset="1" stop-color="#1ca34a" />
    </linearGradient>
  </defs>
  <rect width="32" height="32" rx="16" fill="url(#waGrad)" />
  <path
    fill="#fff"
    d="M16.06 7.2c-4.69 0-8.5 3.75-8.5 8.38 0 1.47.39 2.9 1.13 4.16L7.5 24.8l5.24-1.16a8.6 8.6 0 0 0 3.32.66c4.69 0 8.5-3.75 8.5-8.38S20.75 7.2 16.06 7.2Zm0 15.62a7.1 7.1 0 0 1-3.2-.76l-.23-.11-3.12.69.72-3.04-.12-.24a6.83 6.83 0 0 1-.97-3.5 6.94 6.94 0 0 1 6.92-6.92 6.94 6.94 0 0 1 6.93 6.92 6.94 6.94 0 0 1-6.93 6.96Zm3.8-5.2c-.2-.1-1.2-.58-1.38-.64-.19-.07-.32-.1-.45.1-.14.2-.52.64-.64.77-.12.14-.24.16-.45.05a5.66 5.66 0 0 1-1.66-1.02 6.19 6.19 0 0 1-1.15-1.42c-.12-.2 0-.31.1-.41.1-.1.2-.24.3-.35.1-.12.14-.2.2-.33.07-.14.03-.26-.02-.36-.06-.1-.45-1.08-.62-1.48-.16-.39-.32-.33-.45-.34h-.39c-.13 0-.34.05-.52.24-.17.2-.67.65-.67 1.6s.7 1.86.8 1.99c.1.13 1.36 2.16 3.35 2.94 1.98.78 1.98.52 2.33.48.35-.04 1.2-.49 1.37-.96.17-.47.17-.88.12-.96-.05-.09-.18-.14-.38-.24Z"
  />
</svg>
